<svg xmlns="http://www.w3.org/2000/svg" version="1.1" xmlns:xlink="http://www.w3.org/1999/xlink" xmlns:svgjs="http://svgjs.dev/svgjs" width="100%" height="100%" viewBox="0 0 1000 600"><rect width="1000" height="600" x="0" y="0" fill="#533549"/><g><rect width="333.3333333333333" height="333.3333333333333" rx="13.333333333333334" ry="13.333333333333334" y="402.3244705723251" fill="#f6b042" transform="matrix(0.32885887575867967,0,0,0.3288588757586796,0,112.88220833420078)" x="380.1022644042968"/><path d="M452.67879675537534 640.731507693017L414.52687074781267 640.731507693017L414.52687074781267 633.9854761998522Q420.64931949791185 633.9854761998522 423.9089565639369 630.7258391338271Q427.16859362996195 627.466202067802 429.3227885605524 621.7405786996537Q431.4486388210035 616.0433000016446 434.3114505050777 608.4752730744387L434.3114505050777 608.4752730744387L476.34659632173106 493.9911503816115L481.25022425583825 493.9911503816115L526.7717644996314 610.119263942521Q528.3874106975743 614.3993091335626 530.4282269476073 621.1453406267274Q532.4690431976405 627.863027449753 532.0722178156896 632.5682426928847L532.0722178156896 632.5682426928847Q535.53026757269 632.3698300019093 539.0166619998299 632.1714173109337Q542.4747117568304 631.944659949819 545.9611061839701 631.7462472588436L545.9611061839701 631.7462472588436L545.9611061839701 640.731507693017L499.220745124185 640.731507693017L499.220745124185 633.9854761998522Q506.9588400722271 633.7870635088766 509.42482637435035 630.5274264428517Q511.86246800633427 627.2677893768266 511.26722993340803 622.7609868246702Q510.64364719034234 618.2825289426532 509.2264136833749 614.597721824538L509.2264136833749 614.597721824538L502.0835568082592 595.4367248103385L449.0223343073994 596.6555456263306L441.87947743228364 618.4809416336286Q440.43389925517687 623.384569567736 439.3284571197423 626.2473812518101Q438.1946703141684 629.1101929358842 436.777436807201 632.5682426928847L436.777436807201 632.5682426928847Q440.85906930726713 632.3698300019093 444.82732312677587 632.1714173109337Q448.7955769462846 631.944659949819 452.67879675537534 631.7462472588436L452.67879675537534 631.7462472588436L452.67879675537534 640.731507693017ZM466.5676851236559 546.8539601914958L452.083558682449 587.8686978831327L499.220745124185 587.8686978831327L484.7366186829781 548.8947764415288Q482.46904507183024 542.5739150004542 480.1447821204037 536.3380875697976Q477.7921744988378 530.1306048092804 475.5529455578293 523.7813986980664L475.5529455578293 523.7813986980664L475.12777550573907 523.7813986980664Q473.086959255706 529.5070220662147 470.96110899525485 535.2326454343631Q468.8069140646644 540.9299241323721 466.5676851236559 546.8539601914958L466.5676851236559 546.8539601914958ZM673.9089471929879 543.3959104344954L666.5676776268967 543.3959104344954Q664.5268613768635 524.2065687501566 653.1889933211244 513.5773174479011Q641.8794699355244 502.97641081578485 624.107361758153 502.97641081578485L624.107361758153 502.97641081578485Q613.3080424350615 502.97641081578485 603.8125779383797 507.5682473783593Q594.3171134416982 512.1600839409336 587.1742565665825 520.7201743230169Q580.0313996914667 529.3086093752393 575.9497671914005 541.3550941844624Q571.8681346913345 553.373234323546 571.8681346913345 568.4809435078184L571.8681346913345 568.4809435078184Q571.8681346913345 587.6702851921573 579.2094042574256 602.3528243243395Q586.5506738235167 617.0637081266611 599.02232868483 625.2269731267936Q611.4656388760038 633.3902381269259 626.5733480602764 633.3902381269259L626.5733480602764 633.3902381269259Q639.8386536854914 633.3902381269259 652.678789258616 627.3528233872446Q665.5472695018802 621.3437533177027 673.7105345020125 609.9208512515454L673.7105345020125 609.9208512515454L679.0109878180706 614.200896442587Q670.2241400748726 626.2473812518101 660.0200588247073 632.7666553838601Q649.8159775745419 639.3142741860495 639.725275004934 641.6385371374761Q629.6345724353259 643.9911447590421 621.2445500740789 643.9911447590421L621.2445500740789 643.9911447590421Q605.9384281988309 643.9911447590421 593.1833266361243 638.4922787520084Q580.4282250734175 632.9650680748355 571.1595179378508 623.072778196203Q561.8624661321444 613.1804883175705 556.8738041876193 600.0285613729129Q551.8567975729545 586.8482897581162 551.8567975729545 571.5421678828682L551.8567975729545 571.5421678828682Q551.8567975729545 557.0580414416612 556.2502214445535 543.3959104344954Q560.6436453161525 529.7054347571902 569.4304930593505 518.6793580729837Q578.1889961324091 507.68162605891666 591.5676804381815 501.1340072567273Q604.9180200738144 494.6147331246772 622.6901282511858 494.6147331246772L622.6901282511858 494.6147331246772Q634.1130303173429 494.6147331246772 644.3171115675084 497.6759574997268Q654.5211928176736 500.73718187477635 663.903278633798 507.058043315851L663.903278633798 507.058043315851L662.8828705087815 496.03196663164454L673.9089471929879 496.03196663164454L673.9089471929879 543.3959104344954Z " fill="#533549" transform="matrix(0.32885887575867967,0,0,0.3288588757586796,0,112.88220833420078)"/><path d="M832.6699600606415 640.92381997598L796.7689209175148 640.92381997598L796.7689209175148 634.5757907664226Q802.5301575110626 634.5757907664226 805.5974825492941 631.5084657281911Q808.6648075875256 628.4411406899596 810.691909351922 623.0533175793271Q812.6923387246817 617.6921668603311 815.3862502799981 610.5706382933067L815.3862502799981 610.5706382933067L854.9414070773656 502.84084847229013L859.5557308305313 502.84084847229013L902.3915917992247 612.117637008241Q903.911918122522 616.1451681453971 905.8323303203713 622.4931973549544Q907.7527425182205 628.8145541728748 907.3793290353054 633.242171184583L907.3793290353054 633.242171184583Q910.6333608149945 633.0554644431254 913.9140649863203 632.8687577016678Q917.1680967660094 632.6553785685735 920.4488009373351 632.4686718271159L920.4488009373351 632.4686718271159L920.4488009373351 640.92381997598L876.4660271282595 640.92381997598L876.4660271282595 634.5757907664226Q883.7475900451046 634.3890840249651 886.0680881175059 631.3217589867336Q888.3619137982703 628.2544339485021 887.8017935738976 624.0135236782517Q887.215000957888 619.799285799638 885.8813813760484 616.3318748868546L885.8813813760484 616.3318748868546L879.1599386835759 598.301338140381L829.2292215394949 599.4482509807631L822.5077788470225 619.9859925410956Q821.1474868735459 624.6003162942611 820.1072635997108 627.2942278495775Q819.040367934239 629.9881394048939 817.7067483523992 633.242171184583L817.7067483523992 633.242171184583Q821.5475727480978 633.0554644431254 825.2817075772492 632.8687577016678Q829.0158424064006 632.6553785685735 832.6699600606415 632.4686718271159L832.6699600606415 632.4686718271159L832.6699600606415 640.92381997598ZM845.7394319626712 552.5848588749136L832.1098398362687 591.1798095733566L876.4660271282595 591.1798095733566L862.836435001857 554.5052710727629Q860.7026436709135 548.5573277377575 858.5155075566962 542.6894015776625Q856.3016990508422 536.8481478092043 854.1945801115354 530.8735320825622L854.1945801115354 530.8735320825622L853.7944942369835 530.8735320825622Q851.8740820391341 536.2613551931947 849.8736526663746 541.6491783038275Q847.846550901978 547.0103290228234 845.7394319626712 552.5848588749136L845.7394319626712 552.5848588749136ZM973.4468431196477 643.9911450142115L973.4468431196477 643.9911450142115Q960.5640779590755 643.9911450142115 949.7350869545365 638.1498912457532Q938.8794235583608 632.2819650856582 932.4513771738931 621.2395949480249Q925.9966583977886 610.1972248103916 925.9966583977886 594.64722048614L925.9966583977886 594.64722048614Q925.9966583977886 584.6450736223417 929.6507760520295 575.2563917661896Q933.3048937062705 565.841037518401 939.9196468321958 558.2394059019142Q946.5610723497579 550.6644466770643 955.7630474644524 546.2368296653563Q964.9916949707834 541.8358850452851 976.140754674964 541.8358850452851L976.140754674964 541.8358850452851Q986.8897285045925 541.8358850452851 994.8647736039944 545.0899168249741Q1002.8131463117594 548.3706209963 1007.2407633234674 553.7317717152958Q1011.6683803351755 559.1195948259285 1011.6683803351755 565.440951643849L1011.6683803351755 565.440951643849Q1011.6683803351755 569.6818619140995 1009.3478822627743 572.6424973857838Q1007.0540565820098 575.6298052491047 1002.6264395703018 575.6298052491047L1002.6264395703018 575.6298052491047Q997.8254090756786 575.8165119905623 995.824979702919 572.6424973857838Q993.7978779385226 569.495155172642 993.7978779385226 566.9879503587831L993.7978779385226 566.9879503587831Q993.7978779385226 565.0675381609339 994.384670554532 563.0404363965374Q994.9447907789048 561.0400070237778 996.6784962352964 559.3063015673861L996.6784962352964 559.3063015673861Q995.1314975203624 554.6919778142204 991.2906731246638 552.4781693083664Q987.4498487289652 550.2910331941492 983.3423004168988 549.5975510115925Q979.2080797131954 548.9307412206726 976.5141681578791 548.9307412206726L976.5141681578791 548.9307412206726Q963.4446962558494 548.9307412206726 954.5361174491597 559.4129911339332Q945.6008662508333 569.868568655557 945.6008662508333 589.8461899915167L945.6008662508333 589.8461899915167Q945.6008662508333 602.7022827604521 949.7350869545365 612.7044296242505Q953.842635266603 622.679904096412 961.3375773165425 628.3344511234125Q968.8325193664821 634.01567054205 978.6212870971859 634.01567054205L978.6212870971859 634.01567054205Q987.6632278620597 634.01567054205 995.9049968778294 629.2146400474269Q1004.173438285236 624.4136095528036 1008.7877620384016 617.5054601188735L1008.7877620384016 617.5054601188735L1013.7754992744823 621.3462845145721Q1008.7877620384016 629.4013467888844 1001.7729230379244 634.3890840249651Q994.7580840374472 639.3768212610457 987.3698315540549 641.697319333447Q979.9815790706625 643.9911450142115 973.4468431196477 643.9911450142115ZM1114.197053787017 640.92381997598L1086.7511627927547 640.92381997598Q1086.1643701767453 637.6697881962909 1085.9776634352875 635.1625833824321Q1085.7909566938301 632.6553785685735 1085.390870819278 629.9881394048939L1085.390870819278 629.9881394048939Q1078.8828072599 636.496202964272 1071.2811756434135 640.2570101850602Q1063.7062164185636 643.9911450142115 1055.2510682696993 643.9911450142115L1055.2510682696993 643.9911450142115Q1040.661270044372 643.9911450142115 1033.539741477348 637.3763918882862Q1026.4448853019603 630.7349663707241 1026.4448853019603 621.1329053814777L1026.4448853019603 621.1329053814777Q1026.4448853019603 612.3043437496985 1031.9127255875032 605.8762973652308Q1037.3805658730462 599.4482509807631 1046.1291103299154 595.3140302770598Q1054.8776547867842 591.1798095733566 1065.1465255669505 589.1793802005968Q1075.4153963471167 587.1522784362005 1085.017457336363 587.3389851776581L1085.017457336363 587.3389851776581L1085.017457336363 575.4430985076472Q1085.017457336363 568.7216558151747 1083.8705444959805 562.7737124801695Q1082.7236316555986 556.7990967535272 1078.8828072599 552.9582723578287Q1075.0419828642016 549.1174479621302 1066.5868347153373 548.9307412206726L1066.5868347153373 548.9307412206726Q1061.0123048632472 548.7440344792151 1055.1443787031521 551.0378601599795Q1049.3031249346936 553.3583582323806 1046.6092133793777 558.932888084471L1046.6092133793777 558.932888084471Q1048.1562120943117 560.4532144077682 1048.636315143774 562.4803161721647Q1049.1164181932363 564.4807455449244 1049.1164181932363 566.2144510013161L1049.1164181932363 566.2144510013161Q1049.1164181932363 568.5349490737171 1047.1960059953872 571.4955845454015Q1045.2755937975376 574.4828924087226 1040.4745633029147 574.296185667265L1040.4745633029147 574.296185667265Q1036.4203597741216 574.296185667265 1034.3132408348147 571.4955845454015Q1032.2061218955082 568.7216558151747 1032.2061218955082 564.8808314194763L1032.2061218955082 564.8808314194763Q1032.2061218955082 558.3460954684614 1037.1138419566782 553.1716514909231Q1041.9948896262117 547.9705351217481 1050.6367445165338 544.9032100835166Q1059.2785994068554 541.8358850452851 1070.2409523695783 541.8358850452851L1070.2409523695783 541.8358850452851Q1086.3510769182026 541.8358850452851 1094.0327257095996 550.3710503690595Q1101.7143745009967 558.932888084471 1101.5276677595393 577.3635107054965L1101.5276677595393 577.3635107054965Q1101.5276677595393 584.4583668808841 1101.5276677595393 591.6599126228189Q1101.5276677595393 598.8614583647536 1101.4476505846287 606.0630041066884Q1101.3409610180815 613.2645498486231 1101.3409610180815 620.572785157105L1101.3409610180815 620.572785157105Q1101.3409610180815 623.6401101953365 1101.1542542766242 626.707435233568Q1100.9675475351664 629.7747602717996 1100.5674616606148 633.6155846674981L1100.5674616606148 633.6155846674981Q1104.034872573398 633.4288779260405 1107.3955939196344 633.242171184583Q1110.7563152658704 633.0554644431254 1114.197053787017 632.8687577016678L1114.197053787017 632.8687577016678L1114.197053787017 640.92381997598ZM1085.017457336363 593.873721128673L1085.017457336363 593.873721128673Q1078.4827213853482 594.0604278701305 1071.2811756434135 595.5007370185174Q1064.0796299014787 596.9410461669045 1058.0249969999259 599.8216644636782Q1051.99703649001 602.7022827604521 1048.236229269222 607.4232960801648Q1044.5020944400708 612.117637008241 1044.688801181528 618.8390797007135L1044.688801181528 618.8390797007135Q1045.0622146644432 625.933935876101 1049.3831421096043 629.5080363554316Q1053.7040695547653 633.0554644431254 1059.678685281407 633.0554644431254L1059.678685281407 633.0554644431254Q1067.547040814262 633.0554644431254 1073.38829458272 630.0681565798043Q1079.256220742815 627.10752110812 1085.017457336363 621.7196979974872L1085.017457336363 621.7196979974872Q1084.830750594905 619.6125790581805 1084.830750594905 617.1053742443216Q1084.830750594905 614.6248418220996 1084.830750594905 611.9309302667834L1084.830750594905 611.9309302667834Q1084.830750594905 610.9707241678586 1084.9107677698157 605.7696077986836Q1085.017457336363 600.5951638211452 1085.017457336363 593.873721128673ZM1168.5553879428062 643.9911450142115L1168.5553879428062 643.9911450142115Q1156.846208014253 643.9911450142115 1147.4308537664642 638.1498912457532Q1138.0154995186754 632.2819650856582 1132.5476592331324 621.3462845145721Q1127.079818947589 610.3839315518492 1127.079818947589 595.6074265850646L1127.079818947589 595.6074265850646Q1127.079818947589 579.8440431277186 1133.4011757655098 567.7614497162501Q1139.7492049750672 555.6521839131451 1150.978281854158 548.7440344792151Q1162.2073587332488 541.8358850452851 1176.4237434756606 541.8358850452851L1176.4237434756606 541.8358850452851Q1182.771772685218 541.8358850452851 1189.013112328228 543.4629009351296Q1195.2544519712383 545.0899168249741 1198.9085696254792 547.1970357642809L1198.9085696254792 547.1970357642809L1198.9085696254792 520.8980576104007Q1198.9085696254792 517.8307325721692 1198.9885868003898 515.0301314503056Q1199.095276366937 512.2562027200789 1199.4686898498521 508.4153783243804L1199.4686898498521 508.4153783243804Q1196.0279513287055 508.60208506583797 1192.667229982469 508.7887918072955Q1189.306508636233 509.0021709403899 1185.8390977234494 509.18887768184743L1185.8390977234494 509.18887768184743L1185.8390977234494 501.1071430158985Q1194.2942458723137 501.1071430158985 1198.9085696254792 500.36031605006815Q1203.4962209870082 499.58681669260113 1205.8967362343196 498.4399038522189Q1208.2972514816315 497.2663186201999 1209.6575434551078 495.93269903836017L1209.6575434551078 495.93269903836017L1215.2320733071983 495.93269903836017L1215.2320733071983 620.572785157105Q1215.2320733071983 623.6401101953365 1215.0186941741035 626.707435233568Q1214.8319874326462 629.7747602717996 1214.458573949731 633.6155846674981L1214.458573949731 633.6155846674981Q1217.8993124708777 633.4288779260405 1221.2600338171137 633.242171184583Q1224.6207551633502 633.0554644431254 1228.0881660761333 632.8687577016678L1228.0881660761333 632.8687577016678L1228.0881660761333 640.92381997598L1200.615602690234 640.92381997598Q1200.0554824658616 638.043201679206 1199.7620861578566 635.6426864318944Q1199.4686898498521 633.242171184583 1199.2819831083943 630.9483455038185L1199.2819831083943 630.9483455038185Q1193.894159997762 636.8962888388239 1186.0258044649072 640.4437169265177Q1178.1574489320524 643.9911450142115 1168.5553879428062 643.9911450142115ZM1175.463537376736 634.5757907664226L1175.463537376736 634.5757907664226Q1181.8115665862933 634.5757907664226 1188.2396129707613 630.9483455038185Q1194.6676593552288 627.2942278495775 1198.9085696254792 621.906404738945L1198.9085696254792 621.906404738945Q1198.6951904923849 619.6125790581805 1198.6951904923849 617.0253570694113Q1198.6951904923849 614.4114626890052 1198.6951904923849 611.3441376507737L1198.6951904923849 611.3441376507737L1198.9085696254792 556.052269787697Q1194.2942458723137 552.5848588749136 1188.8264055867708 550.9578429850691Q1183.3318929095908 549.3308270952245 1177.570656316043 549.3308270952245L1177.570656316043 549.3308270952245Q1167.9685953267967 549.3308270952245 1160.8737391514092 554.8786845556781Q1153.7788829760216 560.4532144077682 1150.1247653217806 570.4553612715665Q1146.4706476675397 580.430835743728 1146.8440611504548 593.873721128673L1146.8440611504548 593.873721128673Q1147.2441470250064 605.5829010572261 1150.604868371243 614.8115485635574Q1153.965589717479 624.0135236782517 1160.206929360489 629.2946572223373Q1166.4482690034993 634.5757907664226 1175.463537376736 634.5757907664226ZM1288.7678570498429 643.9911450142115L1288.7678570498429 643.9911450142115Q1275.5116784063557 643.9911450142115 1264.8693941432743 637.7498053712013Q1254.2004374885564 631.5084657281911 1248.0657874120934 620.0926821076428Q1241.9044649439934 608.6502260954576 1241.9044649439934 593.1002217712057L1241.9044649439934 593.1002217712057Q1241.9044649439934 579.657336386261 1247.9590978455462 567.9481564577077Q1254.0137307470986 556.2389765291546 1264.9494113181845 549.0374307872198Q1275.9117642809078 541.8358850452851 1290.3148557647773 541.8358850452851L1290.3148557647773 541.8358850452851Q1298.3699180390895 541.8358850452851 1305.3847570395665 544.4231070340543Q1312.399596040044 547.0103290228234 1317.7607467590396 552.2914625669089Q1323.1485698696724 557.5725961109944 1326.215894907904 565.5476412103961Q1329.2832199461354 573.522686309798 1329.2832199461354 584.2716601394266L1329.2832199461354 584.2716601394266L1261.6953795384957 585.4185729798087Q1261.6953795384957 600.0083712051357 1264.8693941432743 611.050741342769Q1268.043408748053 622.0931114804025 1275.1382649234406 628.1477443819549Q1282.2331210988282 634.2023772835075 1293.3821808030089 634.2023772835075L1293.3821808030089 634.2023772835075Q1299.330124138014 634.2023772835075 1305.5714637810242 632.0952583442006Q1311.8128034240344 629.9881394048939 1317.2006265346672 626.3340217506529Q1322.561777253663 622.679904096412 1325.8424814249888 618.252287084704L1325.8424814249888 618.252287084704L1330.4568051781544 622.0931114804025Q1325.2556888089794 630.1748461463515 1317.974125892134 634.9758766409745Q1310.665890583652 639.7769071355979 1302.984241792255 641.8840260749046Q1295.302593000858 643.9911450142115 1288.7678570498429 643.9911450142115ZM1262.2821721545051 577.3635107054965L1262.2821721545051 577.3635107054965L1311.2526831996615 577.3635107054965Q1311.2526831996615 570.4553612715665 1309.2255814352652 564.000642495462Q1307.1984796708684 557.5725961109944 1302.61082830934 553.438375407291Q1297.9965045561744 549.3308270952245 1290.5015625062347 549.3308270952245L1290.5015625062347 549.3308270952245Q1279.3525028020545 549.3308270952245 1271.964250318662 555.9455802211498Q1264.5759978352694 562.5603333470751 1262.2821721545051 577.3635107054965ZM1385.5619662997738 640.92381997598L1346.3802229853213 640.92381997598L1346.3802229853213 635.1625833824321Q1352.3281663203265 635.1625833824321 1354.6486643927278 632.175275519111Q1356.942490073492 629.2146400474269 1357.3425759480442 623.9335065033413Q1357.7159894309593 618.6523729592559 1357.7159894309593 611.7442235253259L1357.7159894309593 611.7442235253259L1357.7159894309593 567.9481564577077Q1357.7159894309593 564.8808314194763 1357.8226789975065 561.8135063812448Q1357.9026961724167 558.7195089513766 1358.4894887884261 555.4654771716876L1358.4894887884261 555.4654771716876Q1355.022077875643 555.6521839131451 1351.661356529407 555.8388906546027Q1348.3006351831705 556.052269787697 1344.8598966620239 556.2389765291546L1344.8598966620239 556.2389765291546L1344.8598966620239 548.1572418632056Q1353.2883724192511 548.1572418632056 1357.6092998644122 547.4104148973753Q1361.9302273095727 546.6369155399082 1364.0640186405167 545.490002699526Q1366.1711375798232 544.3164174675071 1367.5047571616633 542.9827978856672L1367.5047571616633 542.9827978856672L1373.0792870137534 542.9827978856672Q1373.4527004966685 544.9032100835166 1373.5593900632157 547.4104148973753Q1373.6660796297629 549.8909473195972 1373.8527863712206 553.1716514909231L1373.8527863712206 553.1716514909231Q1379.614022964768 548.1572418632056 1387.1089650147078 545.0098996500637Q1394.5772346730105 541.8358850452851 1402.0721767229502 541.8358850452851L1402.0721767229502 541.8358850452851Q1411.6742377121964 541.8358850452851 1418.208973663211 545.2766235664317Q1424.7437096142257 548.7440344792151 1428.3978272684672 554.6919778142204L1428.3978272684672 554.6919778142204Q1434.9058908278448 549.3308270952245 1443.4677285432563 545.5700198744364Q1452.0028938670307 541.8358850452851 1460.2713352744377 541.8358850452851L1460.2713352744377 541.8358850452851Q1476.9682524390714 541.8358850452851 1484.8366079719262 551.9180490839938Q1492.7316358964176 562.0002131227025 1492.3315500218655 584.858452755436L1492.3315500218655 584.858452755436L1492.1448432804077 620.572785157105Q1492.1448432804077 624.4136095528036 1492.038153713861 627.3742450244879Q1491.9581365389504 630.361552887809 1491.371343922941 633.6155846674981L1491.371343922941 633.6155846674981Q1494.4386689611724 633.4288779260405 1497.4259768244933 633.3488607511301Q1500.4132846878147 633.242171184583 1503.4806097260462 633.0554644431254L1503.4806097260462 633.0554644431254L1503.4806097260462 640.92381997598L1464.2988664115937 640.92381997598L1464.2988664115937 635.1625833824321Q1470.246809746599 635.1625833824321 1472.5673078190002 632.175275519111Q1474.8611334997645 629.2146400474269 1475.2345469826796 623.9335065033413Q1475.6346328572317 618.6523729592559 1475.6346328572317 611.7442235253259L1475.6346328572317 611.7442235253259L1475.6346328572317 584.858452755436Q1475.6346328572317 568.3215699406228 1470.3534993131461 560.0798009248531Q1465.0723657690605 551.8113595174466 1453.7365993234225 551.9980662589041L1453.7365993234225 551.9980662589041Q1447.7886559884173 551.9980662589041 1441.8407126534116 554.6919778142204Q1435.8660969267698 557.3858893695368 1431.4651523066987 561.4134205066929L1431.4651523066987 561.4134205066929Q1432.4253584056232 564.4807455449244 1432.9054614550855 568.0548460242549Q1433.3855645045478 571.6022741119486 1433.3855645045478 575.4430985076472L1433.3855645045478 575.4430985076472Q1433.19885776309 586.565485820191 1433.19885776309 597.901252265829Q1433.19885776309 609.237018711467 1432.9854786299957 620.572785157105L1432.9854786299957 620.572785157105Q1432.9854786299957 624.4136095528036 1432.9054614550855 627.3742450244879Q1432.7987718885383 630.361552887809 1432.2386516641654 633.6155846674981L1432.2386516641654 633.6155846674981Q1435.305976702397 633.4288779260405 1438.2666121740813 633.3488607511301Q1441.2539200374022 633.242171184583 1444.3212450756337 633.0554644431254L1444.3212450756337 633.0554644431254L1444.3212450756337 640.92381997598L1405.1395017611812 640.92381997598L1405.1395017611812 635.1625833824321Q1411.1141174878235 635.1625833824321 1413.3012536020406 632.175275519111Q1415.5150621078947 629.2146400474269 1415.995165157357 623.9335065033413Q1416.4752682068192 618.6523729592559 1416.4752682068192 611.7442235253259L1416.4752682068192 611.7442235253259L1416.661974948277 584.858452755436Q1416.8753540813714 568.3215699406228 1411.8609444536537 559.8930941833955Q1406.873207217573 551.4379460345315 1395.537440771935 551.624652775989L1395.537440771935 551.624652775989Q1389.5894974369298 551.624652775989 1383.828260843382 554.2118747647581Q1378.067024249834 556.7990967535272 1374.039493112678 560.8533002823202L1374.039493112678 560.8533002823202Q1374.039493112678 563.1471259630846 1374.1461826792251 565.7343479518538Q1374.2261998541358 568.3215699406228 1374.2261998541358 571.2021882373967L1374.2261998541358 571.2021882373967L1374.2261998541358 620.572785157105Q1374.2261998541358 624.4136095528036 1374.1461826792251 627.3742450244879Q1374.039493112678 630.361552887809 1373.4527004966685 633.6155846674981L1373.4527004966685 633.6155846674981Q1376.5466979265366 633.4288779260405 1379.507333398221 633.3488607511301Q1382.4946412615423 633.242171184583 1385.5619662997738 633.0554644431254L1385.5619662997738 633.0554644431254L1385.5619662997738 640.92381997598ZM1518.070407951373 640.92381997598L1518.070407951373 635.1625833824321Q1524.0183512863787 635.1625833824321 1526.3388493587795 632.175275519111Q1528.6326750395442 629.2146400474269 1529.0060885224593 623.9335065033413Q1529.406174397011 618.6523729592559 1529.406174397011 611.7442235253259L1529.406174397011 611.7442235253259L1529.406174397011 567.9481564577077Q1529.406174397011 564.8808314194763 1529.5928811384688 562.0802302976128Q1529.779587879926 559.3063015673861 1530.1796737544782 555.4654771716876L1530.1796737544782 555.4654771716876Q1526.7122628416946 555.6521839131451 1523.3515414954586 555.8388906546027Q1519.9908201492226 556.052269787697 1516.523409236439 556.2389765291546L1516.523409236439 556.2389765291546L1516.523409236439 548.1572418632056Q1524.9785573853032 548.1572418632056 1529.5928811384688 547.4104148973753Q1534.2072048916343 546.6369155399082 1536.6077201389458 545.490002699526Q1539.0082353862576 544.3164174675071 1540.3418549680973 542.9827978856672L1540.3418549680973 542.9827978856672L1545.9163848201874 542.9827978856672L1545.9163848201874 620.572785157105Q1545.9163848201874 624.4136095528036 1545.8096952536403 627.3742450244879Q1545.72967807873 630.361552887809 1545.1428854627202 633.6155846674981L1545.1428854627202 633.6155846674981Q1548.2102105009521 633.4288779260405 1551.197518364273 633.3488607511301Q1554.184826227594 633.242171184583 1557.2521512658254 633.0554644431254L1557.2521512658254 633.0554644431254L1557.2521512658254 640.92381997598L1518.070407951373 640.92381997598ZM1536.6877373138564 523.9653826486322L1536.6877373138564 523.9653826486322Q1532.6602061767003 523.9653826486322 1529.5928811384688 520.7113508689431Q1526.5255561002373 517.4306466976172 1526.5255561002373 512.629616202994L1526.5255561002373 512.629616202994Q1526.5255561002373 507.8285857083709 1529.699570705016 504.4678643621347Q1532.8469129181576 501.1071430158985 1536.9011164469507 501.1071430158985L1536.9011164469507 501.1071430158985Q1541.302061067022 501.1071430158985 1544.2893689303428 504.4678643621347Q1547.2500044020276 507.8285857083709 1547.2500044020276 512.629616202994L1547.2500044020276 512.629616202994Q1547.2500044020276 517.4306466976172 1544.1026621888855 520.7113508689431Q1540.9286475841068 523.9653826486322 1536.6877373138564 523.9653826486322ZM1657.8870849114546 640.92381997598L1630.4145215255553 640.92381997598Q1629.8277289095458 637.6697881962909 1629.641022168088 635.1625833824321Q1629.4543154266307 632.6553785685735 1629.0809019437156 629.9881394048939L1629.0809019437156 629.9881394048939Q1622.546165992701 636.496202964272 1614.944534376214 640.2570101850602Q1607.3695751513642 643.9911450142115 1598.9144270025 643.9911450142115L1598.9144270025 643.9911450142115Q1584.3246287771726 643.9911450142115 1577.2297726017855 637.3763918882862Q1570.108244034761 630.7349663707241 1570.108244034761 621.1329053814777L1570.108244034761 621.1329053814777Q1570.108244034761 612.3043437496985 1575.5760843203038 605.8762973652308Q1581.0705969974838 599.4482509807631 1589.792469062716 595.3140302770598Q1598.5410135195848 591.1798095733566 1608.809884299751 589.1793802005968Q1619.0787550799173 587.1522784362005 1628.680816069164 587.3389851776581L1628.680816069164 587.3389851776581L1628.680816069164 575.4430985076472Q1628.680816069164 568.7216558151747 1627.5339032287816 562.7737124801695Q1626.3869903883992 556.7990967535272 1622.546165992701 552.9582723578287Q1618.7053415970022 549.1174479621302 1610.250193448138 548.9307412206726L1610.250193448138 548.9307412206726Q1604.6756635960478 548.7440344792151 1598.8344098275898 551.0378601599795Q1592.9664836674947 553.3583582323806 1590.2725721121783 558.932888084471L1590.2725721121783 558.932888084471Q1591.8195708271123 560.4532144077682 1592.2996738765746 562.4803161721647Q1592.779776926037 564.4807455449244 1592.779776926037 566.2144510013161L1592.779776926037 566.2144510013161Q1592.779776926037 568.5349490737171 1590.8593647281878 571.4955845454015Q1588.9389525303386 574.4828924087226 1584.1379220357153 574.296185667265L1584.1379220357153 574.296185667265Q1580.1103908985592 574.296185667265 1577.9765995676153 571.4955845454015Q1575.8694806283088 568.7216558151747 1575.8694806283088 564.8808314194763L1575.8694806283088 564.8808314194763Q1575.8694806283088 558.3460954684614 1580.7772006894793 553.1716514909231Q1585.6582483590128 547.9705351217481 1594.3001032493344 544.9032100835166Q1602.941958139656 541.8358850452851 1613.9043111023789 541.8358850452851L1613.9043111023789 541.8358850452851Q1630.0411080426402 541.8358850452851 1637.7227568340372 550.3710503690595Q1645.4044056254347 558.932888084471 1645.19102649234 577.3635107054965L1645.19102649234 577.3635107054965Q1645.19102649234 584.4583668808841 1645.19102649234 591.6599126228189Q1645.19102649234 598.8614583647536 1645.1110093174298 606.0630041066884Q1645.0043197508826 613.2645498486231 1645.0043197508826 620.572785157105L1645.0043197508826 620.572785157105Q1645.0043197508826 623.6401101953365 1644.8176130094248 626.707435233568Q1644.6309062679675 629.7747602717996 1644.2308203934153 633.6155846674981L1644.2308203934153 633.6155846674981Q1647.698231306199 633.4288779260405 1651.058952652435 633.242171184583Q1654.4196739986714 633.0554644431254 1657.8870849114546 632.8687577016678L1657.8870849114546 632.8687577016678L1657.8870849114546 640.92381997598ZM1628.680816069164 593.873721128673L1628.680816069164 593.873721128673Q1622.1460801181488 594.0604278701305 1614.944534376214 595.5007370185174Q1607.7429886342793 596.9410461669045 1601.7150281243635 599.8216644636782Q1595.660395222811 602.7022827604521 1591.899588002023 607.4232960801648Q1588.1654531728714 612.117637008241 1588.3521599143291 618.8390797007135L1588.3521599143291 618.8390797007135Q1588.7522457888808 625.933935876101 1593.0731732340419 629.5080363554316Q1597.394100679203 633.0554644431254 1603.342044014208 633.0554644431254L1603.342044014208 633.0554644431254Q1611.210399547063 633.0554644431254 1617.0783257071575 630.0681565798043Q1622.919579475616 627.10752110812 1628.680816069164 621.7196979974872L1628.680816069164 621.7196979974872Q1628.4941093277062 619.6125790581805 1628.4941093277062 617.1053742443216Q1628.4941093277062 614.6248418220996 1628.4941093277062 611.9309302667834L1628.4941093277062 611.9309302667834Q1628.4941093277062 610.9707241678586 1628.6007988942533 605.7696077986836Q1628.680816069164 600.5951638211452 1628.680816069164 593.873721128673ZM1762.7362564356977 643.9911450142115L1762.7362564356977 643.9911450142115Q1751.027076507144 643.9911450142115 1741.6117222593552 638.1498912457532Q1732.1963680115664 632.2819650856582 1726.728527726024 621.3462845145721Q1721.2606874404805 610.3839315518492 1721.2606874404805 595.6074265850646L1721.2606874404805 595.6074265850646Q1721.2606874404805 579.8440431277186 1727.5820442584013 567.7614497162501Q1733.9300734679582 555.6521839131451 1745.159150347049 548.7440344792151Q1756.3882272261403 541.8358850452851 1770.604611968552 541.8358850452851L1770.604611968552 541.8358850452851Q1776.9526411781094 541.8358850452851 1783.1939808211196 543.4629009351296Q1789.4353204641297 545.0899168249741 1793.0627657267337 547.1970357642809L1793.0627657267337 547.1970357642809L1793.0627657267337 520.8980576104007Q1793.0627657267337 517.8307325721692 1793.1694552932809 515.0301314503056Q1793.276144859828 512.2562027200789 1793.6495583427431 508.4153783243804L1793.6495583427431 508.4153783243804Q1790.18214742996 508.60208506583797 1786.8214260837235 508.7887918072955Q1783.4607047374875 509.0021709403899 1780.019966216341 509.18887768184743L1780.019966216341 509.18887768184743L1780.019966216341 501.1071430158985Q1788.4751143652052 501.1071430158985 1793.0627657267337 500.36031605006815Q1797.6770894798992 499.58681669260113 1800.077604727211 498.4399038522189Q1802.4781199745225 497.2663186201999 1803.8384119479992 495.93269903836017L1803.8384119479992 495.93269903836017L1809.3862694084528 495.93269903836017L1809.3862694084528 620.572785157105Q1809.3862694084528 623.6401101953365 1809.199562666995 626.707435233568Q1809.0128559255377 629.7747602717996 1808.639442442622 633.6155846674981L1808.639442442622 633.6155846674981Q1812.0801809637692 633.4288779260405 1815.4409023100052 633.242171184583Q1818.8016236562416 633.0554644431254 1822.2690345690248 632.8687577016678L1822.2690345690248 632.8687577016678L1822.2690345690248 640.92381997598L1794.7964711831255 640.92381997598Q1794.2363509587526 638.043201679206 1793.942954650748 635.6426864318944Q1793.6495583427431 633.242171184583 1793.4628516012858 630.9483455038185L1793.4628516012858 630.9483455038185Q1788.075028490653 636.8962888388239 1780.2066729577982 640.4437169265177Q1772.3383174249439 643.9911450142115 1762.7362564356977 643.9911450142115ZM1769.6444058696275 634.5757907664226L1769.6444058696275 634.5757907664226Q1775.9924350791848 634.5757907664226 1782.4204814636523 630.9483455038185Q1788.8485278481198 627.2942278495775 1793.0627657267337 621.906404738945L1793.0627657267337 621.906404738945Q1792.8760589852764 619.6125790581805 1792.8760589852764 617.0253570694113Q1792.8760589852764 614.4114626890052 1792.8760589852764 611.3441376507737L1792.8760589852764 611.3441376507737L1793.0627657267337 556.052269787697Q1788.4751143652052 552.5848588749136 1782.9806016880252 550.9578429850691Q1777.5127614024818 549.3308270952245 1771.7515248089344 549.3308270952245L1771.7515248089344 549.3308270952245Q1762.1494638196878 549.3308270952245 1755.0546076443002 554.8786845556781Q1747.933079077276 560.4532144077682 1744.3056338146716 570.4553612715665Q1740.6515161604307 580.430835743728 1741.0249296433458 593.873721128673L1741.0249296433458 593.873721128673Q1741.425015517898 605.5829010572261 1744.785736864134 614.8115485635574Q1748.1464582103704 624.0135236782517 1754.3877978533806 629.2946572223373Q1760.6291374963907 634.5757907664226 1769.6444058696275 634.5757907664226ZM1884.0956383831167 643.9911450142115L1884.0956383831167 643.9911450142115Q1870.6527529981718 643.9911450142115 1859.7170724270854 637.7498053712013Q1848.7547194643626 631.5084657281911 1842.326673079895 620.4660955905579Q1835.898626695427 609.4237254529246 1835.898626695427 595.2073407105127L1835.898626695427 595.2073407105127Q1835.898626695427 580.0574222608129 1842.2466559049844 567.9481564577077Q1848.5680127229052 555.8388906546027 1859.530365685628 548.8507240457623Q1870.466046256714 541.8358850452851 1884.0956383831167 541.8358850452851L1884.0956383831167 541.8358850452851Q1897.5385237680612 541.8358850452851 1908.5008767307845 548.2639314297528Q1919.4365573018704 554.6919778142204 1925.9712932528855 565.6543307769434Q1932.5060292039002 576.5900113480295 1932.5060292039002 590.6196893489839L1932.5060292039002 590.6196893489839Q1932.5060292039002 605.3961943157685 1926.0513104277957 617.5854772937839Q1919.6232640433282 629.7747602717996 1908.6875834722418 636.8962888388239Q1897.725230509519 643.9911450142115 1884.0956383831167 643.9911450142115ZM1885.6426370980507 636.3094962228145L1885.6426370980507 636.3094962228145Q1895.8048183116698 636.3094962228145 1901.779434038312 630.5482596292666Q1907.7273773733173 624.7870230357187 1910.3145993620865 615.5850479210244Q1912.9018213508557 606.3564004146931 1912.9018213508557 596.1675468094372L1912.9018213508557 596.1675468094372Q1912.9018213508557 587.5256919191156 1911.274805461011 579.1772333367985Q1909.6477895711664 570.8287747544816 1906.1803786583832 564.000642495462Q1902.7396401372366 557.1991826280791 1897.2451274600567 553.1716514909231Q1891.7772871745137 549.1174479621302 1884.0956383831167 549.1174479621302L1884.0956383831167 549.1174479621302Q1874.120163910955 549.1174479621302 1867.7721347013976 554.8786845556781Q1861.4507778834773 560.6399211492258 1858.463470020156 569.868568655557Q1855.476162156835 579.0972161618881 1855.476162156835 589.6594832500591L1855.476162156835 589.6594832500591Q1855.476162156835 601.55536992007 1858.7568663281609 612.2243265747882Q1862.0108981078497 622.8666108378695 1868.7323408003222 629.588053530342Q1875.453783492795 636.3094962228145 1885.6426370980507 636.3094962228145ZM2114.545102125029 549.3308270952245L2107.6369526910994 549.3308270952245Q2105.7165404932493 531.2736179571141 2095.047583838532 521.2714710933158Q2084.40529957545 511.2959966211543 2067.6817100191793 511.2959966211543L2067.6817100191793 511.2959966211543Q2057.51952880556 511.2959966211543 2048.584277607234 515.6169240663152Q2039.6490264089075 519.9378515114761 2032.927583716435 527.9929137857882Q2026.2061410239626 536.0746484517372 2022.3653166282638 547.4104148973753Q2018.5244922325655 558.7195089513766 2018.5244922325655 572.9358936937886L2018.5244922325655 572.9358936937886Q2018.5244922325655 590.993102831899 2025.4326416664953 604.8094016997591Q2032.3674634920621 618.6523729592559 2044.0766434206153 626.3340217506529Q2055.785823349169 634.01567054205 2070.0022080915805 634.01567054205L2070.0022080915805 634.01567054205Q2082.484887377601 634.01567054205 2094.567480789069 628.3344511234125Q2106.676746592175 622.679904096412 2114.3583953835714 611.9309302667834L2114.3583953835714 611.9309302667834L2119.346132619652 615.9584614039395Q2111.104363603882 627.2942278495775 2101.5023026146364 633.4288779260405Q2091.9002416253898 639.5902003941403 2082.3781978110537 641.7773365083574Q2072.8828263883543 643.9911450142115 2065.0144708555 643.9911450142115L2065.0144708555 643.9911450142115Q2050.6113793716304 643.9911450142115 2038.6088031350723 638.8167010366731Q2026.6062268985143 633.6155846674981 2017.8576824416455 624.3069199862564Q2009.1091379847767 614.9982553050149 2004.4147970567005 602.6222655855418Q1999.7204561286244 590.2196034744318 1999.7204561286244 575.8165119905623L1999.7204561286244 575.8165119905623Q1999.7204561286244 562.18691986416 2003.828004440691 549.3308270952245Q2007.9622251443943 536.4480619346524 2016.2306665518008 526.072501587939Q2024.4724355675708 515.7236136328623 2037.0618044201383 509.5622911647626Q2049.651173272706 503.42764108829965 2066.34809043734 503.42764108829965L2066.34809043734 503.42764108829965Q2077.097064266968 503.42764108829965 2086.6991252562148 506.3082593850736Q2096.3011862454614 509.18887768184743 2105.1297478772403 515.1368210168529L2105.1297478772403 515.1368210168529L2104.1695417783158 504.76126067013945L2114.545102125029 504.76126067013945L2114.545102125029 549.3308270952245ZM2133.5625173620647 640.92381997598L2133.5625173620647 635.1625833824321Q2139.51046069707 635.1625833824321 2141.830958769471 632.175275519111Q2144.124784450235 629.2146400474269 2144.4981979331505 623.9335065033413Q2144.898283807702 618.6523729592559 2144.898283807702 611.7442235253259L2144.898283807702 611.7442235253259L2144.898283807702 567.9481564577077Q2144.898283807702 564.8808314194763 2144.9783009826124 561.8135063812448Q2145.0849905491596 558.7195089513766 2145.6717831651695 555.4654771716876L2145.6717831651695 555.4654771716876Q2142.204372252386 555.6521839131451 2138.8436509061494 555.7588734796923Q2135.482929559914 555.8388906546027 2132.01551864713 556.052269787697L2132.01551864713 556.052269787697L2132.01551864713 548.1572418632056L2137.990134373772 548.1572418632056Q2146.231903389542 548.1572418632056 2149.4059179943206 546.530225973361Q2152.5799325990993 544.9032100835166 2154.687051538406 542.9827978856672L2154.687051538406 542.9827978856672L2160.2615813904968 542.9827978856672Q2160.6349948734114 546.0501229238987 2160.821701614869 550.5577571105172Q2161.0350807479635 555.0920636887724 2161.2217874894213 562.0002131227025L2161.2217874894213 562.0002131227025Q2164.102405786195 557.1991826280791 2169.0901430222757 552.5848588749136Q2174.0778802583563 547.9705351217481 2180.3192199013665 544.9032100835166Q2186.5605595443767 541.8358850452851 2193.4687089783065 541.8358850452851L2193.4687089783065 541.8358850452851Q2198.8565320889393 541.8358850452851 2202.8840632260953 544.716503342059Q2206.9115943632514 547.5971216388328 2206.9115943632514 553.9184784567534L2206.9115943632514 553.9184784567534Q2206.9115943632514 555.4654771716876 2205.951388264327 557.6792856775415Q2204.9911821654023 559.8930941833955 2202.8840632260953 561.5201100732401Q2200.7769442867884 563.1471259630846 2197.309533374005 563.1471259630846L2197.309533374005 563.1471259630846Q2193.095295495392 562.960419221627 2190.588090681533 559.7864046168484Q2188.107558259311 556.6123900120697 2188.6676784836836 552.398152133456L2188.6676784836836 552.398152133456Q2183.8666479890608 552.2114453919985 2178.7988935780695 554.8786845556781Q2173.704466775441 557.5725961109944 2169.2768497637335 562.2936094307072Q2164.875905143662 566.9879503587831 2161.408494230878 573.3359795683405L2161.408494230878 573.3359795683405L2161.595200972336 620.572785157105Q2161.595200972336 624.4136095528036 2161.5151837974263 627.3742450244879Q2161.408494230878 630.361552887809 2160.821701614869 633.6155846674981L2160.821701614869 633.6155846674981Q2163.9156990447373 633.4288779260405 2166.8763345164216 633.3488607511301Q2169.8636423797425 633.242171184583 2172.930967417974 633.0554644431254L2172.930967417974 633.0554644431254L2172.930967417974 640.92381997598L2133.5625173620647 640.92381997598ZM2261.85672113505 643.9911450142115L2261.85672113505 643.9911450142115Q2248.600542491563 643.9911450142115 2237.9315858368445 637.7498053712013Q2227.2893015737636 631.5084657281911 2221.127979105664 620.0926821076428Q2214.9933290292 608.6502260954576 2214.9933290292 593.1002217712057L2214.9933290292 593.1002217712057Q2214.9933290292 579.657336386261 2221.0479619307525 567.9481564577077Q2227.0759224406693 556.2389765291546 2238.0382754033917 549.0374307872198Q2248.9739559744776 541.8358850452851 2263.377047458347 541.8358850452851L2263.377047458347 541.8358850452851Q2271.4587821242967 541.8358850452851 2278.446948733137 544.4231070340543Q2285.461787733614 547.0103290228234 2290.849610844247 552.2914625669089Q2296.210761563243 557.5725961109944 2299.304758993111 565.5476412103961Q2302.3720840313426 573.522686309798 2302.3720840313426 584.2716601394266L2302.3720840313426 584.2716601394266L2234.757571232066 585.4185729798087Q2234.757571232066 600.0083712051357 2237.9315858368445 611.050741342769Q2241.105600441623 622.0931114804025 2248.200456617011 628.1477443819549Q2255.321985184035 634.2023772835075 2266.4443724965795 634.2023772835075L2266.4443724965795 634.2023772835075Q2272.4189882232213 634.2023772835075 2278.6603278662315 632.0952583442006Q2284.9016675092416 629.9881394048939 2290.262818228237 626.3340217506529Q2295.6506413388697 622.679904096412 2298.904673118559 618.252287084704L2298.904673118559 618.252287084704L2303.518996871725 622.0931114804025Q2298.3445528941857 630.1748461463515 2291.0363175857046 634.9758766409745Q2283.728082277222 639.7769071355979 2276.046433485825 641.8840260749046Q2268.3647846944277 643.9911450142115 2261.85672113505 643.9911450142115ZM2235.344363848076 577.3635107054965L2235.344363848076 577.3635107054965L2284.3148748932317 577.3635107054965Q2284.3148748932317 570.4553612715665 2282.2877731288354 564.000642495462Q2280.2873437560756 557.5725961109944 2275.6730200029097 553.438375407291Q2271.0586962497446 549.3308270952245 2263.563754199805 549.3308270952245L2263.563754199805 549.3308270952245Q2252.441366887261 549.3308270952245 2245.0531144038687 555.9455802211498Q2237.6381895288396 562.5603333470751 2235.344363848076 577.3635107054965ZM2272.018902348669 509.18887768184743L2250.520954689412 529.5399125007224L2245.1331315787793 525.1122954890143L2261.26992851904 499.18673081804917Q2264.150546815815 494.9724929394355 2266.8444583711307 494.30568314851564Q2269.5383699264476 493.63887335759574 2271.4587821242967 494.385700323426Q2273.379194322146 495.1591996808931 2273.7526078050614 495.559285555445L2273.7526078050614 495.559285555445Q2274.526107162528 496.1194057798177 2275.486313261453 498.039817977667Q2276.4465193603774 499.96023017551624 2275.9664163109146 502.7608312973798Q2275.486313261453 505.53476002760647 2272.018902348669 509.18887768184743L2272.018902348669 509.18887768184743ZM2359.5843640922685 643.9911450142115L2359.5843640922685 643.9911450142115Q2347.875184163716 643.9911450142115 2338.459829915927 638.1498912457532Q2329.0711480597747 632.2819650856582 2323.5766353825948 621.3462845145721Q2318.1087950970523 610.3839315518492 2318.1087950970523 595.6074265850646L2318.1087950970523 595.6074265850646Q2318.1087950970523 579.8440431277186 2324.4568243066096 567.7614497162501Q2330.7781811245295 555.6521839131451 2342.033930395257 548.7440344792151Q2353.2630072743477 541.8358850452851 2367.4793920167604 541.8358850452851L2367.4793920167604 541.8358850452851Q2373.8007488346802 541.8358850452851 2380.0420884776904 543.4629009351296Q2386.2834281207006 545.0899168249741 2389.937545774942 547.1970357642809L2389.937545774942 547.1970357642809L2389.937545774942 520.8980576104007Q2389.937545774942 517.8307325721692 2390.044235341489 515.0301314503056Q2390.1242525164 512.2562027200789 2390.524338390951 508.4153783243804L2390.524338390951 508.4153783243804Q2387.0569274781674 508.60208506583797 2383.696206131932 508.7887918072955Q2380.3354847856954 509.0021709403899 2376.8680738729117 509.18887768184743L2376.8680738729117 509.18887768184743L2376.8680738729117 501.1071430158985Q2385.323222021776 501.1071430158985 2389.937545774942 500.36031605006815Q2394.551869528107 499.58681669260113 2396.952384775419 498.4399038522189Q2399.352900022731 497.2663186201999 2400.68651960457 495.93269903836017L2400.68651960457 495.93269903836017L2406.2610494566607 495.93269903836017L2406.2610494566607 620.572785157105Q2406.2610494566607 623.6401101953365 2406.074342715203 626.707435233568Q2405.887635973745 629.7747602717996 2405.487550099194 633.6155846674981L2405.487550099194 633.6155846674981Q2408.9549610119766 633.4288779260405 2412.315682358213 633.242171184583Q2415.6764037044495 633.0554644431254 2419.1171422255957 632.8687577016678L2419.1171422255957 632.8687577016678L2419.1171422255957 640.92381997598L2391.6712512313334 640.92381997598Q2391.0844586153235 638.043201679206 2390.7910623073194 635.6426864318944Q2390.524338390951 633.242171184583 2390.3109592578567 630.9483455038185L2390.3109592578567 630.9483455038185Q2384.9498085388605 636.8962888388239 2377.081453006006 640.4437169265177Q2369.186425081515 643.9911450142115 2359.5843640922685 643.9911450142115ZM2366.519185917835 634.5757907664226L2366.519185917835 634.5757907664226Q2372.8405427357557 634.5757907664226 2379.2685891202236 630.9483455038185Q2385.723307896328 627.2942278495775 2389.937545774942 621.906404738945L2389.937545774942 621.906404738945Q2389.750839033484 619.6125790581805 2389.750839033484 617.0253570694113Q2389.750839033484 614.4114626890052 2389.750839033484 611.3441376507737L2389.750839033484 611.3441376507737L2389.937545774942 556.052269787697Q2385.323222021776 552.5848588749136 2379.8553817362335 550.9578429850691Q2374.38754145069 549.3308270952245 2368.626304857142 549.3308270952245L2368.626304857142 549.3308270952245Q2359.024243867896 549.3308270952245 2351.902715300871 554.8786845556781Q2344.8078591254844 560.4532144077682 2341.153741471243 570.4553612715665Q2337.4996238170024 580.430835743728 2337.8997096915537 593.873721128673L2337.8997096915537 593.873721128673Q2338.273123174469 605.5829010572261 2341.6338445207048 614.8115485635574Q2344.9945658669412 624.0135236782517 2351.2359055099514 629.2946572223373Q2357.4772451529616 634.5757907664226 2366.519185917835 634.5757907664226ZM2433.3335269680074 640.92381997598L2433.3335269680074 635.1625833824321Q2439.2814703030135 635.1625833824321 2441.601968375415 632.175275519111Q2443.8957940561786 629.2146400474269 2444.2958799307307 623.9335065033413Q2444.6692934136463 618.6523729592559 2444.6692934136463 611.7442235253259L2444.6692934136463 611.7442235253259L2444.6692934136463 567.9481564577077Q2444.6692934136463 564.8808314194763 2444.856000155103 562.0802302976128Q2445.042706896561 559.3063015673861 2445.442792771113 555.4654771716876L2445.442792771113 555.4654771716876Q2441.9753818583295 555.6521839131451 2438.614660512093 555.8388906546027Q2435.2539391658574 556.052269787697 2431.8132006447104 556.2389765291546L2431.8132006447104 556.2389765291546L2431.8132006447104 548.1572418632056Q2440.241676401938 548.1572418632056 2444.856000155103 547.4104148973753Q2449.470323908269 546.6369155399082 2451.870839155581 545.490002699526Q2454.271354402892 544.3164174675071 2455.604973984732 542.9827978856672L2455.604973984732 542.9827978856672L2461.1795038368227 542.9827978856672L2461.1795038368227 620.572785157105Q2461.1795038368227 624.4136095528036 2461.099486661912 627.3742450244879Q2460.992797095365 630.361552887809 2460.406004479355 633.6155846674981L2460.406004479355 633.6155846674981Q2463.500001909223 633.4288779260405 2466.4606373809074 633.3488607511301Q2469.4479452442292 633.242171184583 2472.5152702824607 633.0554644431254L2472.5152702824607 633.0554644431254L2472.5152702824607 640.92381997598L2433.3335269680074 640.92381997598ZM2451.977528722128 523.9653826486322L2451.977528722128 523.9653826486322Q2447.9233251933347 523.9653826486322 2444.856000155103 520.7113508689431Q2441.7886751168726 517.4306466976172 2441.7886751168726 512.629616202994L2441.7886751168726 512.629616202994Q2441.7886751168726 507.8285857083709 2444.9626897216503 504.4678643621347Q2448.13670432643 501.1071430158985 2452.164235463585 501.1071430158985L2452.164235463585 501.1071430158985Q2456.5651800836567 501.1071430158985 2459.5524879469776 504.4678643621347Q2462.5397958102985 507.8285857083709 2462.5397958102985 512.629616202994L2462.5397958102985 512.629616202994Q2462.5397958102985 517.4306466976172 2459.36578120552 520.7113508689431Q2456.191766600741 523.9653826486322 2451.977528722128 523.9653826486322ZM2526.4735185636973 643.9911450142115L2526.4735185636973 643.9911450142115Q2522.0725739436257 643.9911450142115 2517.4582501904606 642.737542607282Q2512.8439264372955 641.5106125919895 2508.896412475049 637.8564949377485Q2504.9755709044402 634.2023772835075 2502.655072832039 627.1875382830303Q2500.3612471512743 620.1726992825531 2500.3612471512743 608.6502260954576L2500.3612471512743 608.6502260954576L2500.73466063419 552.9582723578287L2485.9581556674048 553.1716514909231L2485.9581556674048 544.9032100835166Q2490.9458929034863 544.716503342059 2496.1470092726613 541.1690752543652Q2501.321453250199 537.5949747750346 2505.455673953903 531.4603246985716Q2509.5898946576062 525.3256746221086 2511.1102209809033 518.0174393136267L2511.1102209809033 518.0174393136267L2517.6449569319184 518.0174393136267L2517.6449569319184 544.9032100835166L2549.918550812441 544.9032100835166L2549.918550812441 552.398152133456L2517.6449569319184 552.7715656163712L2517.271543449003 606.1696936732355Q2517.271543449003 614.8115485635574 2518.71185259739 620.8661814651098Q2520.1521617457774 626.8941419750256 2523.406193525466 629.9881394048939Q2526.660225305155 633.0554644431254 2531.86134167433 633.0554644431254L2531.86134167433 633.0554644431254Q2537.2224923933263 633.0554644431254 2541.9435057130386 629.9881394048939Q2546.6378466411143 626.8941419750256 2550.2919642953557 621.5329912560298L2550.2919642953557 621.5329912560298L2555.466408272894 625.7472291346435Q2551.2521703942803 632.0952583442006 2547.117949690577 635.7493759984416Q2542.9837289868738 639.3768212610457 2539.1429045911755 641.2172162839847Q2535.302080195477 643.0309389152869 2532.048048415788 643.5110419647492Q2528.7940166360986 643.9911450142115 2526.4735185636973 643.9911450142115ZM2612.331947242542 643.9911450142115L2612.331947242542 643.9911450142115Q2598.889061857597 643.9911450142115 2587.9267088948745 637.7498053712013Q2576.9910283237878 631.5084657281911 2570.56298193932 620.4660955905579Q2564.108263163216 609.4237254529246 2564.108263163216 595.2073407105127L2564.108263163216 595.2073407105127Q2564.108263163216 580.0574222608129 2570.4562923727726 567.9481564577077Q2576.804321582331 555.8388906546027 2587.7400021534168 548.8507240457623Q2598.6756827245026 541.8358850452851 2612.331947242542 541.8358850452851L2612.331947242542 541.8358850452851Q2625.774832627487 541.8358850452851 2636.7105131985727 548.2639314297528Q2647.6461937696586 554.6919778142204 2654.1809297206737 565.6543307769434Q2660.715665671689 576.5900113480295 2660.715665671689 590.6196893489839L2660.715665671689 590.6196893489839Q2660.715665671689 605.3961943157685 2654.287619287221 617.5854772937839Q2647.859572902754 629.7747602717996 2636.8972199400305 636.8962888388239Q2625.9615393689446 643.9911450142115 2612.331947242542 643.9911450142115ZM2613.852273565839 636.3094962228145L2613.852273565839 636.3094962228145Q2624.0411271710955 636.3094962228145 2629.9890705061007 630.5482596292666Q2635.937013841106 624.7870230357187 2638.5242358298747 615.5850479210244Q2641.138130210281 606.3564004146931 2641.138130210281 596.1675468094372L2641.138130210281 596.1675468094372Q2641.138130210281 587.5256919191156 2639.4844419288 579.1772333367985Q2637.857426038955 570.8287747544816 2634.416687517808 564.000642495462Q2630.9492766050253 557.1991826280791 2625.481436319482 553.1716514909231Q2620.0135960339394 549.1174479621302 2612.331947242542 549.1174479621302L2612.331947242542 549.1174479621302Q2602.329800378743 549.1174479621302 2596.0084435608233 554.8786845556781Q2589.660414351266 560.6399211492258 2586.673106487944 569.868568655557Q2583.7124710162598 579.0972161618881 2583.7124710162598 589.6594832500591L2583.7124710162598 589.6594832500591Q2583.7124710162598 601.55536992007 2586.96650279595 612.2243265747882Q2590.247206967275 622.8666108378695 2596.968649659748 629.588053530342Q2603.69009235222 636.3094962228145 2613.852273565839 636.3094962228145Z " fill="#f6b042" transform="matrix(0.32885887575867967,0,0,0.3288588757586796,0,112.88220833420078)"/></g></svg>